<svg xmlns="http://www.w3.org/2000/svg" width="1400" height="900" viewBox="0 0 1400 900" role="img" aria-labelledby="title desc">
  <title id="title">MDClaw current preparation workflow overview</title>
  <desc id="desc">High-level flow from source candidates through prepare_complex, optional prep branches, solvation, topology building, minimization, and downstream handoff.</desc>
  <defs>
    <marker id="arrow" markerWidth="12" markerHeight="12" refX="10" refY="6" orient="auto" markerUnits="strokeWidth">
      <path d="M2,2 L10,6 L2,10 Z" fill="#334155"/>
    </marker>
    <style>
      .bg { fill: #f8fafc; }
      .title { font: 700 34px -apple-system, BlinkMacSystemFont, "Segoe UI", sans-serif; fill: #0f172a; }
      .subtitle { font: 500 16px -apple-system, BlinkMacSystemFont, "Segoe UI", sans-serif; fill: #475569; }
      .box { fill: #ffffff; stroke: #94a3b8; stroke-width: 2; rx: 10; }
      .box-source { fill: #eff6ff; stroke: #3b82f6; }
      .box-prep { fill: #ecfdf5; stroke: #10b981; }
      .box-branch { fill: #fefce8; stroke: #eab308; }
      .box-env { fill: #f0f9ff; stroke: #0284c7; }
      .box-topo { fill: #fff7ed; stroke: #f97316; }
      .box-art { fill: #f5f3ff; stroke: #8b5cf6; }
      .box-run { fill: #f1f5f9; stroke: #64748b; }
      .heading { font: 700 20px -apple-system, BlinkMacSystemFont, "Segoe UI", sans-serif; fill: #0f172a; }
      .body { font: 500 15px -apple-system, BlinkMacSystemFont, "Segoe UI", sans-serif; fill: #334155; }
      .small { font: 500 13px -apple-system, BlinkMacSystemFont, "Segoe UI", sans-serif; fill: #475569; }
      .mono { font: 600 14px ui-monospace, SFMono-Regular, Menlo, monospace; fill: #1e293b; }
      .arrow { fill: none; stroke: #334155; stroke-width: 2.5; marker-end: url(#arrow); }
      .soft-arrow { fill: none; stroke: #64748b; stroke-width: 2; stroke-dasharray: 7 7; marker-end: url(#arrow); }
      .label { font: 700 13px -apple-system, BlinkMacSystemFont, "Segoe UI", sans-serif; fill: #0f172a; }
    </style>
  </defs>

  <rect class="bg" x="0" y="0" width="1400" height="900"/>
  <text class="title" x="40" y="55">MDClaw Current Prep Workflow</text>
  <text class="subtitle" x="40" y="82">Implementation-level overview: source candidate → prep-owned structure chemistry → environment → topology + minimization artifact triple.</text>

  <g id="source">
    <rect class="box box-source" x="40" y="135" width="255" height="150"/>
    <text class="heading" x="62" y="170">1. Source</text>
    <text class="body" x="62" y="202">fetch_structure / local input</text>
    <text class="small" x="62" y="230">• source_bundle.json</text>
    <text class="small" x="62" y="252">• candidate_*.pdb/cif</text>
    <text class="small" x="62" y="274">• optional Gemmi assembly</text>
  </g>

  <g id="prep">
    <rect class="box box-prep" x="345" y="110" width="400" height="265"/>
    <text class="heading" x="370" y="146">2. prepare_complex</text>
    <text class="small" x="370" y="177">• inspect and split molecules</text>
    <text class="small" x="370" y="199">• clean proteins, disulfides, protonation</text>
    <text class="small" x="370" y="221">• standard DNA/RNA H rebuild</text>
    <text class="small" x="370" y="243">• ligands → PDB/SDF + ligand_chemistry</text>
    <text class="small" x="370" y="265">• glycan linkage provenance</text>
    <text class="small" x="370" y="287">• component disposition before processors</text>
    <line x1="370" y1="309" x2="715" y2="309" stroke="#86efac" stroke-width="2"/>
    <text class="mono" x="370" y="337">Output: merged.pdb + prep artifacts</text>
  </g>

  <g id="branches">
    <rect class="box box-branch" x="345" y="450" width="400" height="160"/>
    <text class="heading" x="370" y="486">Optional prep branches</text>
    <text class="small" x="370" y="517">• mutation: HPacker repack</text>
    <text class="small" x="370" y="539">• phosphorylation: SEP/TPO/PTR</text>
    <text class="small" x="370" y="561">• branch output registered as merged_pdb</text>
    <text class="small" x="370" y="583">• modified DNA/RNA: unsupported in standard path</text>
  </g>

  <g id="environment">
    <rect class="box box-env" x="800" y="120" width="260" height="300"/>
    <text class="heading" x="824" y="156">3. Environment</text>
    <text class="small" x="824" y="188">Default: explicit water</text>
    <text class="small" x="824" y="214">solvate_structure</text>
    <text class="small" x="844" y="236">water + salt + box_dimensions</text>
    <text class="small" x="824" y="268">embed_in_membrane</text>
    <text class="small" x="844" y="290">lipids + water + salt</text>
    <text class="small" x="824" y="322">implicit / vacuum</text>
    <text class="small" x="844" y="344">use merged_pdb; prep excludes ions when implicit</text>
    <line x1="824" y1="366" x2="1036" y2="366" stroke="#7dd3fc" stroke-width="2"/>
    <text class="small" x="824" y="392">salt_override fallback is recorded</text>
  </g>

  <g id="topology">
    <rect class="box box-topo" x="1110" y="105" width="250" height="365"/>
    <text class="heading" x="1132" y="141">4. Topology</text>
    <text class="body" x="1132" y="173">build_amber_system</text>
    <text class="small" x="1132" y="202">• Pablo topology load</text>
    <text class="small" x="1132" y="224">• Amber/openmmforcefields XMLs</text>
    <text class="small" x="1132" y="246">• geostd or GAFFTemplateGenerator</text>
    <text class="small" x="1132" y="268">• phosaa / DNA / RNA / GLYCAM</text>
    <text class="small" x="1132" y="290">• GLYCAM topology normalization</text>
    <text class="small" x="1132" y="312">• addExtraParticles only</text>
    <text class="small" x="1132" y="334">• SystemGenerator.create_system</text>
    <line x1="1132" y1="357" x2="1338" y2="357" stroke="#fed7aa" stroke-width="2"/>
    <text class="small" x="1132" y="385">No generic topology-time repair</text>
    <text class="small" x="1132" y="407">missing atoms/H → structured failure</text>
  </g>

  <g id="artifacts">
    <rect class="box box-art" x="1110" y="540" width="250" height="165"/>
    <text class="heading" x="1132" y="576">5. Artifacts</text>
    <text class="mono" x="1132" y="608">system.xml</text>
    <text class="mono" x="1132" y="633">topology.pdb</text>
    <text class="mono" x="1132" y="658">state.xml</text>
    <text class="mono" x="1132" y="683">minimization_report.json</text>
  </g>

  <g id="run">
    <rect class="box box-run" x="800" y="610" width="260" height="95"/>
    <text class="heading" x="824" y="645">6. Handoff</text>
    <text class="small" x="824" y="674">equilibration / production / benchmark</text>
  </g>

  <path class="arrow" d="M295 210 H345"/>
  <path class="arrow" d="M545 375 V450"/>
  <path class="arrow" d="M745 220 H800"/>
  <path class="arrow" d="M745 530 C770 530 775 300 800 300"/>
  <path class="arrow" d="M1060 270 H1110"/>
  <path class="arrow" d="M1235 470 V540"/>
  <path class="arrow" d="M1110 655 H1060"/>
  <path class="soft-arrow" d="M930 610 V420"/>

  <text class="label" x="307" y="197">candidate</text>
  <text class="label" x="554" y="428">branch if needed</text>
  <text class="label" x="748" y="207">merged_pdb</text>
  <text class="label" x="1071" y="257">PDB + box/GB choice</text>
  <text class="label" x="1245" y="514">minimize</text>
  <text class="label" x="918" y="593">artifact triple</text>
</svg>
